<?xml version="1.0"?>
<svg xmlns="http://www.w3.org/2000/svg" height="512px" viewBox="0 0 480 480" width="512px"><path d="m440 64h-24v-40c0-13.253906-10.746094-24-24-24h-304c-13.253906 0-24 10.746094-24 24v40h-24c-22.082031.027344-39.9726562 17.917969-40 40v240c.0273438 22.082031 17.917969 39.972656 40 40h134.9375l-6 48h-8.9375c-8.835938 0-16 7.164062-16 16v16h-16v16h224v-16h-16v-16c0-8.835938-7.164062-16-16-16h-8.9375l-6-48h134.9375c22.082031-.027344 39.972656-17.917969 40-40v-240c-.027344-22.082031-17.917969-39.972656-40-40zm-360 0h320v200c0 4.417969-3.582031 8-8 8h-304c-4.417969 0-8-3.582031-8-8zm8-48h304c4.417969 0 8 3.582031 8 8v24h-320v-24c0-4.417969 3.582031-8 8-8zm-48 64h24v184c0 13.253906 10.746094 24 24 24h304c13.253906 0 24-10.746094 24-24v-184h24c13.253906 0 24 10.746094 24 24v200h-448v-200c0-13.253906 10.746094-24 24-24zm280 384h-160v-16h160zm-25.0625-32h-109.875l6-48h97.875zm145.0625-64h-400c-13.253906 0-24-10.746094-24-24v-24h448v24c0 13.253906-10.746094 24-24 24zm0 0" fill="#FFFFFF"/><path d="m424 336h16v16h-16zm0 0" fill="#FFFFFF"/><path d="m96 24h16v16h-16zm0 0" fill="#FFFFFF"/><path d="m128 24h16v16h-16zm0 0" fill="#FFFFFF"/><path d="m160 24h16v16h-16zm0 0" fill="#FFFFFF"/><path d="m240 232c-24.339844-.042969-46.542969-13.910156-57.265625-35.761719 14.191406-7.4375 20.667969-24.242187 15.140625-39.28125-5.527344-15.039062-21.34375-23.648437-36.972656-20.128906-15.632813 3.523437-26.230469 18.082031-24.773438 34.039063 1.453125 15.957031 14.511719 28.359374 30.519532 28.996093 10.867187 25.054688 33.773437 42.828125 60.742187 47.136719 26.96875 4.304688 54.273437-5.453125 72.402344-25.878906l-12-10.625c-12.132813 13.660156-29.523438 21.484375-47.792969 21.503906zm-88-64c0-8.835938 7.164062-16 16-16s16 7.164062 16 16-7.164062 16-16 16-16-7.164062-16-16zm0 0" fill="#FFFFFF"/><path d="m240 104c24.339844.042969 46.542969 13.910156 57.265625 35.761719-14.191406 7.4375-20.667969 24.242187-15.140625 39.28125 5.527344 15.039062 21.34375 23.648437 36.972656 20.128906 15.632813-3.523437 26.230469-18.082031 24.773438-34.039063-1.453125-15.957031-14.511719-28.359374-30.519532-28.996093-10.871093-25.054688-33.777343-42.828125-60.746093-47.136719-26.972657-4.304688-54.273438 5.453125-72.40625 25.878906l12 10.625c12.132812-13.664062 29.527343-21.488281 47.800781-21.503906zm88 64c0 8.835938-7.164062 16-16 16s-16-7.164062-16-16 7.164062-16 16-16 16 7.164062 16 16zm0 0" fill="#FFFFFF"/><path d="m104 80h16v16h-16zm0 0" fill="#FFFFFF"/><path d="m136 80h32v16h-32zm0 0" fill="#FFFFFF"/><path d="m104 112h32v16h-32zm0 0" fill="#FFFFFF"/><path d="m336 208h48v16h-48zm0 0" fill="#FFFFFF"/><path d="m336 240h48v16h-48zm0 0" fill="#FFFFFF"/></svg>
